<svg version="1.1" xmlns="http://www.w3.org/2000/svg" viewBox="-281.2 -2916.6499999999996 4691.4 3238.85"><desc>Created with Snap</desc><defs></defs><g><rect x="-281.2" y="-2916.6499999999996" width="4691.4" height="3238.85" fill="#832161" style=""></rect><g transform="matrix(32.8286,0,0,32.8286,1014.9241,-2856.909)"><title>Animal</title><g><path d="M55.6172,11.9883a15.0181,15.0181,0,0,0-21.2129,0L32,14.3926l-2.4043-2.4043A15,15,0,1,0,8.3828,33.2012l22.91,22.9111a.9995.9995,0,0,0,1.414,0l22.91-22.9111a14.9994,14.9994,0,0,0,0-21.2129ZM54.2031,31.7871,32,53.9912,9.7969,31.7871A13,13,0,0,1,28.1816,13.4023l3.1114,3.1114a1,1,0,0,0,1.414,0l3.1114-3.1114A13,13,0,0,1,54.2031,31.7871Zm-15.3823,3.665a6.9926,6.9926,0,0,0-13.6416,0A3.9915,3.9915,0,0,0,27,43a3.8586,3.8586,0,0,0,1.1318-.17,6.98,6.98,0,0,0,7.7364,0A3.8586,3.8586,0,0,0,37,43a3.9915,3.9915,0,0,0,1.8208-7.5479ZM36.1475,40.8a1,1,0,0,0-1.0489.1191,5.0568,5.0568,0,0,1-6.1972,0,1,1,0,0,0-.6206-.2158.9886.9886,0,0,0-.4283.0967,1.99,1.99,0,1,1-1.4736-3.6875.9993.9993,0,0,0,.6763-.81,4.9929,4.9929,0,0,1,9.89,0,.9993.9993,0,0,0,.6763.81A1.99,1.99,0,1,1,36.1475,40.8ZM28,28c1.6821,0,3-1.7568,3-4s-1.3179-4-3-4-3,1.7568-3,4S26.3179,28,28,28Zm0-6c.4077,0,1,.7793,1,2s-.5923,2-1,2-1-.7793-1-2S27.5923,22,28,22Zm-3,8c0-2.2432-1.3179-4-3-4s-3,1.7568-3,4,1.3179,4,3,4S25,32.2432,25,30Zm-3,2c-.4077,0-1-.7793-1-2s.5923-2,1-2,1,.7793,1,2S22.4077,32,22,32Zm14-4c1.6821,0,3-1.7568,3-4s-1.3179-4-3-4-3,1.7568-3,4S34.3179,28,36,28Zm0-6c.4077,0,1,.7793,1,2s-.5923,2-1,2-1-.7793-1-2S35.5923,22,36,22Zm6,4c-1.6821,0-3,1.7568-3,4s1.3179,4,3,4,3-1.7568,3-4S43.6821,26,42,26Zm0,6c-.4077,0-1-.7793-1-2s.5923-2,1-2,1,.7793,1,2S42.4077,32,42,32Z" fill="#f0dd7a" style=""></path></g><desc>Created with Snap</desc><defs></defs></g><g><g transform="matrix(1,0,0,-1,0,0)"><path d="M549 366L577 366Q594 366 609 363Q625 360 625 341Q632 301 578 302Q563 303 550 304Q538 305 530 304Q522 304 523 299Q533 270 544 234Q556 198 570 162Q606 73 638 34Q621 13 598 -1Q576 -15 574 -15Q573 -15 572 -14L431 283L158 216L148 174Q119 59 83 14Q77 4 58 12Q26 24 26 32Q26 34 47 90Q68 146 89 203Q111 261 134 324Q158 387 179 444Q200 501 217 546Q234 592 241 612Q248 633 250 648Q253 664 258 675Q268 698 308 698Q351 674 374 635Q398 597 414 553Q431 509 447 464Q463 419 490 382Q499 368 517 367Q535 366 549 366ZM299 582Q291 521 263 457Q235 393 218 357Q201 322 189 292Q257 292 356 332Q381 343 404 352Q357 553 299 582ZM678 133Q678 149 675 177Q673 206 671 240Q669 274 669 309Q669 344 675 373Q688 438 729 438Q757 430 766 418Q776 406 776 388Q776 371 767 345Q734 258 734 188Q734 165 737 139Q753 72 847 72Q896 72 940 89Q1024 120 1054 162Q1063 208 1063 242Q1063 277 1060 304Q1058 331 1054 363Q1051 396 1050 435Q1063 441 1075 441Q1088 441 1101 428Q1115 415 1124 379Q1134 343 1137 294Q1140 246 1140 194Q1141 142 1141 93Q1141 45 1145 10Q1133 -1 1122 -1Q1082 -1 1063 79Q1050 68 1019 52Q953 16 863 4Q846 2 825 2Q804 2 772 10Q741 18 713 47Q685 76 678 133ZM1299 167L1303 94Q1303 88 1302 72Q1302 56 1290 43Q1279 31 1262 31Q1246 31 1237 32Q1204 32 1204 61Q1204 85 1226 254Q1248 424 1254 473Q1260 522 1264 555Q1269 589 1271 605Q1273 621 1277 637Q1281 653 1289 663Q1304 682 1347 682Q1419 646 1495 478Q1549 358 1567 326Q1585 294 1602 282L1802 630Q1823 645 1834 645Q1866 645 1883 616Q1900 587 1911 545Q1923 504 1931 454Q1940 404 1946 349Q1953 295 1959 243Q1973 118 1980 86Q1988 54 1988 40Q1988 27 1979 14Q1970 2 1954 2Q1938 2 1922 14Q1906 27 1902 45Q1899 64 1895 94Q1892 124 1887 161Q1882 199 1877 240Q1872 282 1867 320Q1862 358 1858 387Q1854 417 1852 432Q1852 452 1851 469Q1850 486 1843 490Q1836 494 1821 480Q1807 467 1781 426Q1725 339 1619 133Q1605 108 1582 122Q1555 137 1536 199L1352 590Q1328 542 1308 272Q1305 239 1304 216Q1299 191 1299 167ZM2443 166Q2368 48 2243 20Q2214 14 2190 14Q2167 14 2151 14Q2136 15 2117 19Q2098 23 2082 32Q2045 53 2045 91Q2041 109 2041 131Q2041 154 2051 191Q2061 228 2087 271Q2114 314 2152 350Q2231 426 2323 448Q2350 454 2372 454Q2395 454 2413 451Q2471 451 2491 372Q2504 322 2506 232Q2509 143 2511 94Q2514 46 2524 6L2465 6Q2461 33 2459 54Q2457 75 2455 93Q2450 135 2443 166ZM2439 321Q2439 379 2382 379Q2375 380 2368 380Q2295 380 2214 310Q2176 278 2149 238Q2109 181 2109 136Q2109 77 2177 66Q2267 68 2349 148Q2384 183 2407 224Q2439 279 2439 321ZM2722 96L2724 256Q2724 294 2717 321L2562 321L2560 390L2710 390L2710 648Q2713 657 2722 666Q2736 680 2745 680Q2755 680 2762 678Q2769 676 2777 664Q2793 598 2793 465Q2793 432 2796 400Q2828 404 2860 404Q2860 404 2912 404Q2931 404 2947 406L2944 334L2798 338L2803 -7Q2785 -15 2772 -15Q2722 -15 2722 96ZM3389 105Q3430 122 3469 136Q3508 150 3543 150Q3579 150 3579 128Q3579 123 3576 112Q3574 102 3549 87Q3525 73 3489 60Q3454 47 3412 36Q3370 25 3330 17Q3247 0 3212 0Q3177 0 3136 8Q3096 16 3061 34Q2980 76 2980 158Q2980 164 2980 182Q2980 200 2995 233Q3010 267 3040 300Q3070 334 3110 362Q3194 422 3286 440Q3318 447 3339 447Q3361 447 3375 446Q3389 446 3404 444Q3419 443 3430 437Q3456 424 3456 386Q3456 362 3422 339Q3413 333 3406 328Q3401 351 3393 367Q3385 383 3358 383Q3240 358 3155 308Q3059 251 3059 188Q3059 181 3060 173Q3060 109 3109 82Q3146 62 3204 62Q3263 62 3306 75Q3349 89 3389 105ZM4103 14Q4094 -3 4056 -3Q4019 -3 4019 24Q4019 142 4014 186Q4005 283 3976 290Q3904 304 3858 304Q3813 304 3783 276Q3754 249 3738 185Q3723 122 3716 7L3639 7Q3641 64 3641 113Q3641 162 3639 229Q3637 297 3634 377Q3629 469 3629 532Q3629 596 3637 649Q3647 668 3666 668Q3689 668 3702 651Q3715 635 3716 622L3711 457Q3711 364 3720 318Q3810 378 3906 378Q3937 378 3972 373Q4047 334 4070 290Q4081 267 4084 241Q4087 215 4088 182Q4094 68 4103 14Z" fill="#ffffff" style=""></path></g></g></g></svg>