<svg version="1.1" xmlns="http://www.w3.org/2000/svg" viewBox="-2873.0128676994345 -1032.2 15580.712867699434 2582.6"><desc>Created with Snap</desc><defs></defs><g><rect x="-2873.0128676994345" y="-1032.2" width="15580.712867699434" height="2582.6" fill="#832161" style=""></rect><g transform="matrix(40.2763,0,0,40.2763,-2724.1956,-1028.5991)"><title>Animal</title><g><path d="M55.6172,11.9883a15.0181,15.0181,0,0,0-21.2129,0L32,14.3926l-2.4043-2.4043A15,15,0,1,0,8.3828,33.2012l22.91,22.9111a.9995.9995,0,0,0,1.414,0l22.91-22.9111a14.9994,14.9994,0,0,0,0-21.2129ZM54.2031,31.7871,32,53.9912,9.7969,31.7871A13,13,0,0,1,28.1816,13.4023l3.1114,3.1114a1,1,0,0,0,1.414,0l3.1114-3.1114A13,13,0,0,1,54.2031,31.7871Zm-15.3823,3.665a6.9926,6.9926,0,0,0-13.6416,0A3.9915,3.9915,0,0,0,27,43a3.8586,3.8586,0,0,0,1.1318-.17,6.98,6.98,0,0,0,7.7364,0A3.8586,3.8586,0,0,0,37,43a3.9915,3.9915,0,0,0,1.8208-7.5479ZM36.1475,40.8a1,1,0,0,0-1.0489.1191,5.0568,5.0568,0,0,1-6.1972,0,1,1,0,0,0-.6206-.2158.9886.9886,0,0,0-.4283.0967,1.99,1.99,0,1,1-1.4736-3.6875.9993.9993,0,0,0,.6763-.81,4.9929,4.9929,0,0,1,9.89,0,.9993.9993,0,0,0,.6763.81A1.99,1.99,0,1,1,36.1475,40.8ZM28,28c1.6821,0,3-1.7568,3-4s-1.3179-4-3-4-3,1.7568-3,4S26.3179,28,28,28Zm0-6c.4077,0,1,.7793,1,2s-.5923,2-1,2-1-.7793-1-2S27.5923,22,28,22Zm-3,8c0-2.2432-1.3179-4-3-4s-3,1.7568-3,4,1.3179,4,3,4S25,32.2432,25,30Zm-3,2c-.4077,0-1-.7793-1-2s.5923-2,1-2,1,.7793,1,2S22.4077,32,22,32Zm14-4c1.6821,0,3-1.7568,3-4s-1.3179-4-3-4-3,1.7568-3,4S34.3179,28,36,28Zm0-6c.4077,0,1,.7793,1,2s-.5923,2-1,2-1-.7793-1-2S35.5923,22,36,22Zm6,4c-1.6821,0-3,1.7568-3,4s1.3179,4,3,4,3-1.7568,3-4S43.6821,26,42,26Zm0,6c-.4077,0-1-.7793-1-2s.5923-2,1-2,1,.7793,1,2S42.4077,32,42,32Z" fill="#f0dd7a" style=""></path></g><desc>Created with Snap</desc><defs></defs></g><g><g transform="matrix(1,0,0,-1,0,0)"><path d="M233 725L309 720Q337 596 424 369Q511 143 539 31Q539 2 529 -13Q519 -27 504 -27Q491 -27 479 -17Q468 -6 464 13Q455 57 406 189Q200 215 147 221Q134 185 115 104Q96 23 85 -8Q70 -26 51 -26Q30 -26 15 -8Q0 11 0 38Q32 155 116 382Q200 609 233 725ZM268 624Q248 503 157 269L269 269Q345 269 396 264Q293 485 268 624ZM876 502L924 493L924 483Q924 415 932 253Q941 91 948 3Q928 -5 910 -5Q894 -5 874 0L866 26Q802 -10 744 -10Q701 -10 669 10Q638 30 621 59Q604 89 594 132Q584 176 581 211Q579 247 579 291Q579 419 595 526L640 516Q647 483 647 444Q647 422 644 368Q642 314 642 286Q642 237 646 201Q651 166 663 132Q676 99 702 81Q728 63 767 63Q811 63 862 83Q864 120 866 272Q868 425 876 502ZM1724 0L1648 -7Q1593 338 1529 584Q1496 506 1456 364Q1417 223 1402 181Q1400 181 1395 180Q1391 180 1388 180Q1374 180 1342 183Q1310 186 1301 186Q1300 215 1250 379Q1200 544 1190 590Q1172 428 1050 0L988 6Q1002 115 1057 349Q1112 583 1122 711Q1140 713 1151 713Q1161 713 1225 705Q1239 703 1265 614Q1292 526 1319 420Q1346 314 1353 295Q1381 364 1420 519Q1460 674 1476 716Q1492 715 1577 707Q1603 606 1627 489Q1652 372 1680 223Q1709 74 1724 0ZM1801 432L1781 483Q1807 509 1847 524Q1887 540 1926 540Q2095 540 2095 248Q2095 208 2090 130Q2086 52 2086 13Q2078 -18 2055 -18Q2037 -18 2022 0Q2007 18 2007 40Q2007 47 2008 50Q1946 -10 1876 -10Q1823 -10 1783 28Q1744 67 1744 122Q1744 215 1816 290Q1889 365 1981 365Q1985 365 1989 364Q1993 364 1998 363Q2004 362 2007 362Q1999 479 1914 479Q1864 479 1801 432ZM2010 119Q2012 189 2012 225Q2012 255 2010 309L2002 309Q1931 308 1872 256Q1814 204 1814 130Q1814 98 1833 79Q1853 60 1881 60Q1925 60 2010 119ZM2449 484L2460 439Q2433 437 2377 428Q2321 420 2293 418Q2298 383 2299 326Q2300 269 2301 227Q2303 186 2310 144Q2318 103 2341 81Q2365 59 2405 59Q2435 59 2480 73Q2499 36 2508 19Q2429 -9 2348 -9Q2318 -9 2296 9Q2274 27 2262 54Q2250 81 2242 122Q2235 164 2233 201Q2231 238 2231 286Q2231 312 2231 358Q2232 404 2232 421Q2222 420 2185 419Q2148 419 2142 419Q2135 486 2135 488Q2142 486 2158 486Q2167 486 2187 487Q2207 489 2217 489Q2221 489 2227 488Q2234 488 2236 488Q2240 598 2245 667L2290 656Q2291 632 2291 604Q2292 577 2292 543Q2293 510 2293 492Q2319 490 2371 488Q2423 486 2449 484ZM2885 496L2880 453Q2838 459 2808 459Q2739 459 2694 417Q2649 376 2632 319Q2616 263 2616 194Q2616 162 2620 137Q2624 112 2634 88Q2645 64 2667 50Q2690 37 2723 37Q2767 37 2835 54Q2856 62 2868 62Q2892 62 2897 6Q2809 -22 2734 -22Q2625 -22 2586 31Q2548 85 2548 205Q2548 275 2557 327Q2567 380 2591 425Q2615 471 2660 495Q2706 519 2772 519Q2846 519 2885 496ZM2953 720L3005 708Q3008 667 3009 577Q3011 487 3013 453Q3067 510 3143 510Q3211 510 3260 462Q3310 414 3310 334L3310 5Q3297 -1 3277 -1Q3255 -1 3237 3Q3237 11 3237 27Q3238 44 3238 52Q3238 91 3235 186Q3232 282 3232 346Q3217 438 3139 438Q3105 438 3072 419Q3039 401 3024 376Q3027 313 3028 186Q3029 59 3031 3Q3007 -1 2990 -1Q2965 -1 2948 5Q2950 54 2950 160Q2950 207 2949 332Q2948 458 2948 548Q2949 639 2953 720Z" fill="#ffffff" style=""></path></g></g><g transform="matrix(0.75,0,0,0.75,-22.5,956.7)"><g transform="matrix(1,0,0,-1,0,0)"><path d="M130 630L353 635Q453 635 486 622L486 573Q459 569 412 568Q365 568 312 567Q164 564 110 552Q93 472 94 443Q95 414 96 398Q100 359 100 306Q168 306 255 318Q343 330 391 335Q439 341 490 341L490 286L107 238L113 74Q212 74 315 83Q419 93 472 97Q526 102 586 102Q586 82 574 64Q550 32 531 45Q355 26 216 15Q78 4 30 0L34 638Q60 630 130 630ZM1022 158L1023 219Q1023 338 1010 394Q1018 409 986 409Q952 409 898 392Q844 375 810 358Q729 319 720 282L720 10L653 10Q640 44 640 201Q640 341 645 407Q651 473 654 482Q680 499 696 499Q721 499 721 440Q721 417 718 395Q716 374 716 366Q878 485 967 485Q1068 485 1082 322Q1088 265 1088 164L1087 85Q1087 41 1089 0Q1079 -6 1073 -6Q1070 -5 1060 -3Q1050 -1 1034 0Q1024 40 1023 81Q1022 123 1022 158ZM1549 105Q1590 122 1629 136Q1668 150 1703 150Q1739 150 1739 128Q1739 123 1736 112Q1734 102 1709 87Q1685 73 1649 60Q1614 47 1572 36Q1530 25 1490 17Q1407 0 1372 0Q1337 0 1296 8Q1256 16 1221 34Q1140 76 1140 158Q1140 164 1140 182Q1140 200 1155 233Q1170 267 1200 300Q1230 334 1270 362Q1354 422 1446 440Q1478 447 1499 447Q1521 447 1535 446Q1549 446 1564 444Q1579 443 1590 437Q1616 424 1616 386Q1616 362 1582 339Q1573 333 1566 328Q1561 351 1553 367Q1545 383 1518 383Q1400 358 1315 308Q1219 251 1219 188Q1219 181 1220 173Q1220 109 1269 82Q1306 62 1364 62Q1423 62 1466 75Q1509 89 1549 105ZM1818 190Q1818 308 1920 380Q2001 437 2115 449Q2121 449 2143 449Q2165 449 2202 436Q2284 408 2314 337Q2326 309 2326 289Q2326 270 2325 262Q2325 137 2230 65Q2142 -1 2010 -1Q1915 -1 1866 43Q1818 87 1818 190ZM1887 166Q1887 104 1920 82Q1945 66 2004 66Q2063 66 2108 75Q2153 84 2188 106Q2263 154 2263 255Q2263 315 2231 353Q2196 394 2139 394Q2100 387 2060 379Q2021 371 1986 348Q1910 299 1887 166ZM2758 158L2759 219Q2759 338 2746 394Q2754 409 2722 409Q2688 409 2634 392Q2580 375 2546 358Q2465 319 2456 282L2456 10L2389 10Q2376 44 2376 201Q2376 341 2381 407Q2387 473 2390 482Q2416 499 2432 499Q2457 499 2457 440Q2457 417 2454 395Q2452 374 2452 366Q2614 485 2703 485Q2804 485 2818 322Q2824 265 2824 164L2823 85Q2823 41 2825 0Q2815 -6 2809 -6Q2806 -5 2796 -3Q2786 -1 2770 0Q2760 40 2759 81Q2758 123 2758 158ZM3032 96L3034 256Q3034 294 3027 321L2872 321L2870 390L3020 390L3020 648Q3023 657 3032 666Q3046 680 3055 680Q3065 680 3072 678Q3079 676 3087 664Q3103 598 3103 465Q3103 432 3106 400Q3138 404 3170 404Q3170 404 3222 404Q3241 404 3257 406L3254 334L3108 338L3113 -7Q3095 -15 3082 -15Q3032 -15 3032 96ZM3786 365Q3744 395 3678 395Q3616 395 3563 372Q3463 330 3426 264Q3410 234 3410 200Q3410 194 3410 166Q3410 139 3420 92Q3430 46 3430 -2Q3409 -3 3396 -7Q3383 -11 3374 -11Q3365 -11 3358 -3Q3352 5 3344 28Q3343 34 3340 62Q3337 90 3332 130Q3328 170 3322 217Q3317 265 3312 311Q3301 411 3295 458Q3295 482 3330 482Q3351 482 3363 464Q3375 447 3382 424Q3389 402 3391 380Q3394 358 3396 349Q3528 467 3724 467Q3746 467 3770 466Q3776 467 3785 467Q3794 467 3803 455Q3814 441 3814 421Q3814 371 3786 365ZM4064 70Q4152 70 4329 150Q4340 150 4347 142Q4354 135 4354 125Q4314 57 4201 19Q4088 -19 3990 6Q3879 35 3855 131Q3853 150 3853 182Q3853 214 3869 266Q3886 319 3926 366Q3966 413 4020 440Q4074 467 4135 467Q4193 467 4265 427Q4299 408 4319 384Q4339 360 4339 335Q4339 328 4338 321Q4336 260 4279 244Q4254 237 4221 237L4077 243Q4005 243 3967 212Q3945 195 3936 161Q3961 70 4064 70ZM4242 379Q4220 395 4196 402Q4172 409 4156 409Q4140 409 4104 398Q4068 388 4040 375Q3971 343 3971 308Q4051 301 4091 301Q4202 301 4241 320Q4265 330 4265 345Q4265 363 4242 379ZM5166 258Q5276 258 5276 202Q5276 160 5215 104Q5124 21 4970 -29Q4963 -29 4954 -15Q4946 -1 4941 6Q4937 14 4935 16Q5050 54 5124 108Q5174 144 5174 167Q5174 190 5115 190Q5056 190 4942 162Q4890 164 4852 199Q4819 230 4819 261Q4819 293 4837 319Q4855 346 4885 369Q4915 392 4955 411Q5053 458 5158 458Q5189 458 5218 452Q5242 452 5246 431Q5250 410 5250 362Q5191 389 5117 389Q5025 389 4965 352Q4903 316 4901 258Q4901 230 4942 230L5015 238Q5109 258 5166 258ZM5542 70Q5630 70 5807 150Q5818 150 5825 142Q5832 135 5832 125Q5792 57 5679 19Q5566 -19 5468 6Q5357 35 5333 131Q5331 150 5331 182Q5331 214 5347 266Q5364 319 5404 366Q5444 413 5498 440Q5552 467 5613 467Q5671 467 5743 427Q5777 408 5797 384Q5817 360 5817 335Q5817 328 5816 321Q5814 260 5757 244Q5732 237 5699 237L5555 243Q5483 243 5445 212Q5423 195 5414 161Q5439 70 5542 70ZM5720 379Q5698 395 5674 402Q5650 409 5634 409Q5618 409 5582 398Q5546 388 5518 375Q5449 343 5449 308Q5529 301 5569 301Q5680 301 5719 320Q5743 330 5743 345Q5743 363 5720 379ZM5887 133Q5887 149 5884 177Q5882 206 5880 240Q5878 274 5878 309Q5878 344 5884 373Q5897 438 5938 438Q5966 430 5975 418Q5985 406 5985 388Q5985 371 5976 345Q5943 258 5943 188Q5943 165 5946 139Q5962 72 6056 72Q6105 72 6149 89Q6233 120 6263 162Q6272 208 6272 242Q6272 277 6269 304Q6267 331 6263 363Q6260 396 6259 435Q6272 441 6284 441Q6297 441 6310 428Q6324 415 6333 379Q6343 343 6346 294Q6349 246 6349 194Q6350 142 6350 93Q6350 45 6354 10Q6342 -1 6331 -1Q6291 -1 6272 79Q6259 68 6228 52Q6162 16 6072 4Q6055 2 6034 2Q6013 2 5981 10Q5950 18 5922 47Q5894 76 5887 133ZM7215 166Q7140 48 7015 20Q6986 14 6962 14Q6939 14 6923 14Q6908 15 6889 19Q6870 23 6854 32Q6817 53 6817 91Q6813 109 6813 131Q6813 154 6823 191Q6833 228 6859 271Q6886 314 6924 350Q7003 426 7095 448Q7122 454 7144 454Q7167 454 7185 451Q7243 451 7263 372Q7276 322 7278 232Q7281 143 7283 94Q7286 46 7296 6L7237 6Q7233 33 7231 54Q7229 75 7227 93Q7222 135 7215 166ZM7211 321Q7211 379 7154 379Q7147 380 7140 380Q7067 380 6986 310Q6948 278 6921 238Q6881 181 6881 136Q6881 77 6949 66Q7039 68 7121 148Q7156 183 7179 224Q7211 279 7211 321ZM7338 133Q7338 149 7335 177Q7333 206 7331 240Q7329 274 7329 309Q7329 344 7335 373Q7348 438 7389 438Q7417 430 7426 418Q7436 406 7436 388Q7436 371 7427 345Q7394 258 7394 188Q7394 165 7397 139Q7413 72 7507 72Q7556 72 7600 89Q7684 120 7714 162Q7723 208 7723 242Q7723 277 7720 304Q7718 331 7714 363Q7711 396 7710 435Q7723 441 7735 441Q7748 441 7761 428Q7775 415 7784 379Q7794 343 7797 294Q7800 246 7800 194Q7801 142 7801 93Q7801 45 7805 10Q7793 -1 7782 -1Q7742 -1 7723 79Q7710 68 7679 52Q7613 16 7523 4Q7506 2 7485 2Q7464 2 7432 10Q7401 18 7373 47Q7345 76 7338 133ZM8256 166Q8181 48 8056 20Q8027 14 8003 14Q7980 14 7964 14Q7949 15 7930 19Q7911 23 7895 32Q7858 53 7858 91Q7854 109 7854 131Q7854 154 7864 191Q7874 228 7900 271Q7927 314 7965 350Q8044 426 8136 448Q8163 454 8185 454Q8208 454 8226 451Q8284 451 8304 372Q8317 322 8319 232Q8322 143 8324 94Q8327 46 8337 6L8278 6Q8274 33 8272 54Q8270 75 8268 93Q8263 135 8256 166ZM8252 321Q8252 379 8195 379Q8188 380 8181 380Q8108 380 8027 310Q7989 278 7962 238Q7922 181 7922 136Q7922 77 7990 66Q8080 68 8162 148Q8197 183 8220 224Q8252 279 8252 321ZM8379 133Q8379 149 8376 177Q8374 206 8372 240Q8370 274 8370 309Q8370 344 8376 373Q8389 438 8430 438Q8458 430 8467 418Q8477 406 8477 388Q8477 371 8468 345Q8435 258 8435 188Q8435 165 8438 139Q8454 72 8548 72Q8597 72 8641 89Q8725 120 8755 162Q8764 208 8764 242Q8764 277 8761 304Q8759 331 8755 363Q8752 396 8751 435Q8764 441 8776 441Q8789 441 8802 428Q8816 415 8825 379Q8835 343 8838 294Q8841 246 8841 194Q8842 142 8842 93Q8842 45 8846 10Q8834 -1 8823 -1Q8783 -1 8764 79Q8751 68 8720 52Q8654 16 8564 4Q8547 2 8526 2Q8505 2 8473 10Q8442 18 8414 47Q8386 76 8379 133ZM9397 16Q9356 -1 9342 -1Q9329 -1 9324 2Q9319 5 9313 16Q9313 49 9315 99Q9318 149 9320 206Q9322 263 9322 321Q9322 379 9316 427Q9316 459 9359 459Q9369 459 9374 423Q9380 387 9382 367Q9385 347 9387 338Q9413 385 9490 412Q9531 425 9567 425Q9603 425 9630 416Q9658 408 9677 385Q9697 363 9697 326Q9723 375 9814 414Q9897 451 9963 451Q10058 451 10056 379L10077 7Q10077 2 10048 0Q9992 -4 9992 10Q9991 30 9991 50L9996 211Q9996 324 9974 390Q9908 385 9872 368Q9837 352 9810 327Q9783 303 9762 262Q9715 170 9715 18Q9709 -3 9676 -3Q9654 -3 9640 4Q9626 12 9629 18Q9648 124 9648 183Q9648 230 9638 272Q9629 315 9615 370Q9471 370 9421 255Q9399 204 9396 159Q9394 115 9394 83Q9394 52 9397 16ZM10504 166Q10429 48 10304 20Q10275 14 10251 14Q10228 14 10212 14Q10197 15 10178 19Q10159 23 10143 32Q10106 53 10106 91Q10102 109 10102 131Q10102 154 10112 191Q10122 228 10148 271Q10175 314 10213 350Q10292 426 10384 448Q10411 454 10433 454Q10456 454 10474 451Q10532 451 10552 372Q10565 322 10567 232Q10570 143 10572 94Q10575 46 10585 6L10526 6Q10522 33 10520 54Q10518 75 10516 93Q10511 135 10504 166ZM10500 321Q10500 379 10443 379Q10436 380 10429 380Q10356 380 10275 310Q10237 278 10210 238Q10170 181 10170 136Q10170 77 10238 66Q10328 68 10410 148Q10445 183 10468 224Q10500 279 10500 321ZM10783 96L10785 256Q10785 294 10778 321L10623 321L10621 390L10771 390L10771 648Q10774 657 10783 666Q10797 680 10806 680Q10816 680 10823 678Q10830 676 10838 664Q10854 598 10854 465Q10854 432 10857 400Q10889 404 10921 404Q10921 404 10973 404Q10992 404 11008 406L11005 334L10859 338L10864 -7Q10846 -15 10833 -15Q10783 -15 10783 96ZM11450 105Q11491 122 11530 136Q11569 150 11604 150Q11640 150 11640 128Q11640 123 11637 112Q11635 102 11610 87Q11586 73 11550 60Q11515 47 11473 36Q11431 25 11391 17Q11308 0 11273 0Q11238 0 11197 8Q11157 16 11122 34Q11041 76 11041 158Q11041 164 11041 182Q11041 200 11056 233Q11071 267 11101 300Q11131 334 11171 362Q11255 422 11347 440Q11379 447 11400 447Q11422 447 11436 446Q11450 446 11465 444Q11480 443 11491 437Q11517 424 11517 386Q11517 362 11483 339Q11474 333 11467 328Q11462 351 11454 367Q11446 383 11419 383Q11301 358 11216 308Q11120 251 11120 188Q11120 181 11121 173Q11121 109 11170 82Q11207 62 11265 62Q11324 62 11367 75Q11410 89 11450 105ZM12164 14Q12155 -3 12117 -3Q12080 -3 12080 24Q12080 142 12075 186Q12066 283 12037 290Q11965 304 11919 304Q11874 304 11844 276Q11815 249 11799 185Q11784 122 11777 7L11700 7Q11702 64 11702 113Q11702 162 11700 229Q11698 297 11695 377Q11690 469 11690 532Q11690 596 11698 649Q11708 668 11727 668Q11750 668 11763 651Q11776 635 11777 622L11772 457Q11772 364 11781 318Q11871 378 11967 378Q11998 378 12033 373Q12108 334 12131 290Q12142 267 12145 241Q12148 215 12149 182Q12155 68 12164 14ZM12707 401Q12843 448 12942 448Q13068 448 13110 382Q13129 351 13129 315Q13129 265 13097 212Q13066 159 13014 116Q12893 17 12720 -7Q12720 -18 12720 -43Q12721 -67 12721 -97Q12722 -127 12722 -161Q12723 -195 12724 -226Q12727 -303 12728 -314Q12730 -325 12730 -332Q12730 -357 12714 -370Q12698 -382 12672 -382Q12667 -382 12662 -382L12646 422Q12655 435 12670 434Q12685 433 12694 426Q12703 419 12707 401ZM12999 366Q12966 383 12928 383Q12891 383 12854 376Q12770 360 12730 305Q12712 279 12712 241Q12712 237 12712 233L12712 60Q12918 106 13004 188Q13054 235 13054 285Q13054 338 12999 366ZM13385 70Q13473 70 13650 150Q13661 150 13668 142Q13675 135 13675 125Q13635 57 13522 19Q13409 -19 13311 6Q13200 35 13176 131Q13174 150 13174 182Q13174 214 13190 266Q13207 319 13247 366Q13287 413 13341 440Q13395 467 13456 467Q13514 467 13586 427Q13620 408 13640 384Q13660 360 13660 335Q13660 328 13659 321Q13657 260 13600 244Q13575 237 13542 237L13398 243Q13326 243 13288 212Q13266 195 13257 161Q13282 70 13385 70ZM13563 379Q13541 395 13517 402Q13493 409 13477 409Q13461 409 13425 398Q13389 388 13361 375Q13292 343 13292 308Q13372 301 13412 301Q13523 301 13562 320Q13586 330 13586 345Q13586 363 13563 379ZM14226 365Q14184 395 14118 395Q14056 395 14003 372Q13903 330 13866 264Q13850 234 13850 200Q13850 194 13850 166Q13850 139 13860 92Q13870 46 13870 -2Q13849 -3 13836 -7Q13823 -11 13814 -11Q13805 -11 13798 -3Q13792 5 13784 28Q13783 34 13780 62Q13777 90 13772 130Q13768 170 13762 217Q13757 265 13752 311Q13741 411 13735 458Q13735 482 13770 482Q13791 482 13803 464Q13815 447 13822 424Q13829 402 13831 380Q13834 358 13836 349Q13968 467 14164 467Q14186 467 14210 466Q14216 467 14225 467Q14234 467 14243 455Q14254 441 14254 421Q14254 371 14226 365ZM14874 334Q14879 334 14879 307Q14879 280 14881 270L14538 228L14556 6L14475 10Q14475 100 14455 216L14325 166Q14312 166 14303 181Q14287 207 14287 228L14439 282Q14419 454 14419 561Q14419 669 14437 729Q14455 789 14489 809Q14524 830 14563 830Q14602 830 14642 813Q14683 796 14720 770Q14757 744 14783 711Q14809 679 14809 648Q14809 624 14804 614Q14764 670 14707 714Q14639 766 14579 766Q14522 766 14503 685Q14494 643 14494 566Q14494 490 14498 426Q14502 363 14522 299Q14584 299 14661 310Q14809 333 14874 334ZM15112 70Q15200 70 15377 150Q15388 150 15395 142Q15402 135 15402 125Q15362 57 15249 19Q15136 -19 15038 6Q14927 35 14903 131Q14901 150 14901 182Q14901 214 14917 266Q14934 319 14974 366Q15014 413 15068 440Q15122 467 15183 467Q15241 467 15313 427Q15347 408 15367 384Q15387 360 15387 335Q15387 328 15386 321Q15384 260 15327 244Q15302 237 15269 237L15125 243Q15053 243 15015 212Q14993 195 14984 161Q15009 70 15112 70ZM15290 379Q15268 395 15244 402Q15220 409 15204 409Q15188 409 15152 398Q15116 388 15088 375Q15019 343 15019 308Q15099 301 15139 301Q15250 301 15289 320Q15313 330 15313 345Q15313 363 15290 379ZM15489 470L15552 470Q15565 283 15574 37Q15568 6 15526 6Q15515 6 15503 10Q15492 15 15489 23L15489 470ZM15459 606Q15459 641 15500 641Q15527 641 15544 629Q15547 618 15547 607Q15547 597 15539 587Q15531 577 15515 577Q15499 577 15483 584Q15467 592 15459 606ZM15768 96L15770 256Q15770 294 15763 321L15608 321L15606 390L15756 390L15756 648Q15759 657 15768 666Q15782 680 15791 680Q15801 680 15808 678Q15815 676 15823 664Q15839 598 15839 465Q15839 432 15842 400Q15874 404 15906 404Q15906 404 15958 404Q15977 404 15993 406L15990 334L15844 338L15849 -7Q15831 -15 15818 -15Q15768 -15 15768 96ZM16056 190Q16056 308 16158 380Q16239 437 16353 449Q16359 449 16381 449Q16403 449 16440 436Q16522 408 16552 337Q16564 309 16564 289Q16564 270 16563 262Q16563 137 16468 65Q16380 -1 16248 -1Q16153 -1 16104 43Q16056 87 16056 190ZM16125 166Q16125 104 16158 82Q16183 66 16242 66Q16301 66 16346 75Q16391 84 16426 106Q16501 154 16501 255Q16501 315 16469 353Q16434 394 16377 394Q16338 387 16298 379Q16259 371 16224 348Q16148 299 16125 166Z" fill="#ffffff" style=""></path></g></g></g></svg>